<?xml version="1.0" standalone="no"?>
<!DOCTYPE svg PUBLIC "-//W3C//DTD SVG 20010904//EN"
 "http://www.w3.org/TR/2001/REC-SVG-20010904/DTD/svg10.dtd">
<svg version="1.0" xmlns="http://www.w3.org/2000/svg"
 width="400.000000pt" height="400.000000pt" viewBox="0 0 400.000000 400.000000"
 preserveAspectRatio="xMidYMid meet">
<metadata>
Created by potrace 1.14, written by Peter Selinger 2001-2017
</metadata>
<g transform="translate(0.000000,400.000000) scale(0.100000,-0.100000)"
fill="#000000" stroke="none">
<path d="M1915 3494 c-202 -29 -335 -65 -471 -130 -425 -201 -712 -587 -790
-1059 -17 -105 -12 -326 11 -458 16 -87 69 -245 115 -337 l28 -55 -75 -305
c-51 -211 -72 -315 -68 -337 7 -39 57 -83 93 -83 15 0 155 32 312 71 157 39
293 72 303 74 10 2 47 -9 82 -25 68 -30 228 -84 280 -95 17 -3 41 -8 55 -10
145 -30 398 -28 545 5 144 32 235 64 366 130 51 25 92 51 208 129 19 13 83 72
142 130 82 83 107 114 113 142 12 65 -27 124 -85 129 -64 6 -64 6 -171 -108
-165 -175 -429 -315 -655 -347 -23 -3 -57 -8 -75 -11 -18 -2 -80 -5 -138 -5
-545 -1 -1029 382 -1151 911 -6 25 -13 54 -16 65 -14 61 -14 286 1 379 71 431
364 775 787 924 87 31 103 35 219 53 73 11 259 15 305 6 17 -4 50 -9 74 -12
82 -12 216 -56 317 -105 142 -69 250 -151 377 -288 78 -85 163 -87 202 -5 31
65 16 94 -108 218 -62 61 -146 134 -188 162 -154 105 -363 193 -544 228 -78
15 -339 28 -400 19z"/>
<path d="M1905 2985 c-184 -27 -344 -106 -484 -239 -98 -94 -115 -149 -65
-200 45 -44 87 -37 148 27 168 172 324 241 536 239 289 -3 550 -200 644 -484
78 -237 9 -535 -163 -707 -147 -147 -301 -212 -501 -212 -192 0 -351 72 -507
230 -50 51 -65 61 -94 61 -46 0 -89 -40 -89 -81 0 -45 14 -67 100 -149 350
-339 901 -322 1230 38 72 79 75 82 116 153 115 195 150 450 93 674 -83 328
-360 586 -689 645 -89 15 -189 17 -275 5z"/>
<path d="M1860 2534 c-36 -14 -76 -33 -90 -44 l-25 -20 38 0 c41 0 102 -27
129 -57 28 -31 46 -85 44 -134 -5 -87 -68 -153 -158 -165 -86 -12 -175 51
-193 136 l-8 35 -14 -40 c-18 -48 -24 -172 -11 -229 13 -62 61 -156 103 -204
78 -89 185 -141 307 -149 92 -6 162 8 240 50 188 98 282 318 224 522 -43 148
-159 264 -312 310 -74 22 -199 17 -274 -11z"/>
</g>
</svg>
